<svg width="24" height="24" viewBox="0 0 24 24" fill="none" xmlns="http://www.w3.org/2000/svg">
<path d="M3.20227 9V6.67273H3.69432V7.63295H4.69318V6.67273H5.18409V9H4.69318V8.03864H3.69432V9H3.20227ZM6.58864 6.67273V9H6.09659V7.13977H6.08295L5.55 7.47386V7.0375L6.12614 6.67273H6.58864Z" fill="#D9D9D9"/>
<path d="M3.20227 13V10.6727H3.69432V11.633H4.69318V10.6727H5.18409V13H4.69318V12.0386H3.69432V13H3.20227ZM5.57614 13V12.6455L6.40455 11.8784C6.475 11.8102 6.53409 11.7489 6.58182 11.6943C6.6303 11.6398 6.66705 11.5864 6.69205 11.5341C6.71705 11.4811 6.72955 11.4239 6.72955 11.3625C6.72955 11.2943 6.71402 11.2356 6.68295 11.1864C6.65189 11.1364 6.60947 11.0981 6.55568 11.0716C6.50189 11.0443 6.44091 11.0307 6.37273 11.0307C6.30152 11.0307 6.23939 11.0451 6.18636 11.0739C6.13333 11.1027 6.09242 11.1439 6.06364 11.1977C6.03485 11.2515 6.02045 11.3155 6.02045 11.3898H5.55341C5.55341 11.2375 5.58788 11.1053 5.65682 10.9932C5.72576 10.8811 5.82235 10.7943 5.94659 10.733C6.07083 10.6716 6.21402 10.6409 6.37614 10.6409C6.5428 10.6409 6.68788 10.6705 6.81136 10.7295C6.93561 10.7879 7.0322 10.8689 7.10114 10.9727C7.17008 11.0765 7.20455 11.1955 7.20455 11.3295C7.20455 11.4174 7.18712 11.5042 7.15227 11.5898C7.11818 11.6754 7.0572 11.7705 6.96932 11.875C6.88144 11.9788 6.75758 12.1034 6.59773 12.2489L6.25795 12.5818V12.5977H7.23523V13H5.57614Z" fill="#D9D9D9"/>
<path d="M3.20227 17V14.6727H3.69432V15.633H4.69318V14.6727H5.18409V17H4.69318V16.0386H3.69432V17H3.20227ZM6.43636 17.0318C6.26667 17.0318 6.11553 17.0027 5.98295 16.9443C5.85114 16.8852 5.74697 16.8042 5.67045 16.7011C5.5947 16.5973 5.55568 16.4777 5.55341 16.342H6.04886C6.05189 16.3989 6.07045 16.4489 6.10455 16.492C6.13939 16.5345 6.18561 16.5674 6.24318 16.5909C6.30076 16.6144 6.36553 16.6261 6.4375 16.6261C6.5125 16.6261 6.57879 16.6129 6.63636 16.5864C6.69394 16.5598 6.73902 16.5231 6.77159 16.4761C6.80417 16.4292 6.82046 16.375 6.82046 16.3136C6.82046 16.2515 6.80303 16.1966 6.76818 16.1489C6.73409 16.1004 6.68485 16.0625 6.62045 16.0352C6.55682 16.008 6.48106 15.9943 6.39318 15.9943H6.17614V15.633H6.39318C6.46742 15.633 6.53295 15.6201 6.58977 15.5943C6.64735 15.5686 6.69205 15.533 6.72386 15.4875C6.75568 15.4413 6.77159 15.3875 6.77159 15.3261C6.77159 15.2678 6.75758 15.2167 6.72955 15.1727C6.70227 15.128 6.66364 15.0932 6.61364 15.0682C6.56439 15.0432 6.50682 15.0307 6.44091 15.0307C6.37424 15.0307 6.31326 15.0428 6.25795 15.067C6.20265 15.0905 6.15833 15.1242 6.125 15.1682C6.09167 15.2121 6.07386 15.2636 6.07159 15.3227H5.6C5.60227 15.1886 5.64053 15.0705 5.71477 14.9682C5.78902 14.8659 5.88902 14.786 6.01477 14.7284C6.14129 14.6701 6.28409 14.6409 6.44318 14.6409C6.60379 14.6409 6.74432 14.6701 6.86477 14.7284C6.98523 14.7867 7.07879 14.8655 7.14546 14.9648C7.21288 15.0633 7.24621 15.1739 7.24546 15.2966C7.24621 15.4269 7.20568 15.5356 7.12386 15.6227C7.0428 15.7098 6.93712 15.7652 6.80682 15.7886V15.8068C6.97803 15.8288 7.10833 15.8883 7.19773 15.9852C7.28788 16.0814 7.33258 16.2019 7.33182 16.3466C7.33258 16.4792 7.29432 16.597 7.21705 16.7C7.14053 16.803 7.03485 16.8841 6.9 16.9432C6.76515 17.0023 6.61061 17.0318 6.43636 17.0318Z" fill="#D9D9D9"/>
<path d="M10 8H21" stroke="#D9D9D9"/>
<path d="M10 12H21" stroke="#D9D9D9"/>
<path d="M10 16H21" stroke="#D9D9D9"/>
</svg>
